<svg width="25" height="25" viewBox="0 0 25 25" fill="none" xmlns="http://www.w3.org/2000/svg">
<path d="M9.88708 7.17285C9.98791 7.17285 10.0649 7.20326 10.1429 7.28125L15.0873 12.2256C15.1412 12.2795 15.1663 12.3215 15.1781 12.3496V12.3506C15.1929 12.3861 15.2015 12.4259 15.2015 12.4746C15.2015 12.5233 15.1929 12.5631 15.1781 12.5986V12.5996C15.1663 12.6277 15.1412 12.6697 15.0873 12.7236L10.1185 17.6924C10.0408 17.7702 9.97362 17.792 9.89294 17.7891C9.79892 17.7856 9.71805 17.7537 9.6322 17.668C9.55408 17.5898 9.52283 17.513 9.52283 17.4121C9.52283 17.3112 9.55408 17.2344 9.6322 17.1562L14.3138 12.4746L9.60681 7.76758C9.52915 7.68988 9.5072 7.62357 9.51013 7.54297C9.51358 7.4487 9.54615 7.36731 9.6322 7.28125C9.71013 7.20344 9.78649 7.17293 9.88708 7.17285Z" fill="#010101" stroke="#010101"/>
</svg>
