<svg width="33" height="33" viewBox="0 0 33 33" fill="none" xmlns="http://www.w3.org/2000/svg">
<path d="M5.992 4.79297H10.659C10.9429 4.79305 11.1542 4.87934 11.327 5.04199C11.5199 5.22357 11.6655 5.47248 11.7508 5.8125L12.6404 9.84082C12.6874 10.1688 12.6776 10.4394 12.6248 10.6611C12.5758 10.8672 12.4768 11.0392 12.3211 11.1875L12.3152 11.1943L8.95782 14.5049L8.67853 14.7803L8.87872 15.1172C9.44453 16.068 10.0455 16.958 10.6815 17.7871C11.3202 18.6199 12.0294 19.412 12.8084 20.1631C13.622 21.0033 14.4723 21.7654 15.3592 22.4482C16.2521 23.1357 17.1848 23.7372 18.157 24.252L18.4881 24.4277L18.7498 24.1592L21.9559 20.8691L21.9656 20.8584C22.1698 20.6369 22.3903 20.4983 22.6297 20.4268L22.6307 20.4277C22.8247 20.3702 23.0181 20.3482 23.2127 20.3623L23.408 20.3887L27.1815 21.2236C27.5065 21.3142 27.7512 21.4736 27.9363 21.6973C28.1173 21.9158 28.2068 22.1631 28.2068 22.46V27.0078C28.2068 27.3656 28.092 27.6386 27.867 27.8613C27.6392 28.0866 27.3659 28.1992 27.0154 28.1992C24.4878 28.1991 21.904 27.5919 19.2596 26.3633C16.616 25.1351 14.1586 23.3892 11.8885 21.1191C9.76047 18.9911 8.09221 16.6973 6.87775 14.2383L6.64044 13.7451L6.41681 13.249C5.33527 10.7746 4.8006 8.35669 4.8006 5.99219C4.80062 5.67911 4.88841 5.42968 5.06134 5.2207L5.14044 5.13379C5.36538 4.90761 5.63795 4.79297 5.992 4.79297ZM6.08771 6.59375C6.12842 7.53203 6.27597 8.51839 6.52716 9.55176C6.7799 10.5914 7.17729 11.7422 7.71368 13.001L8.00275 13.6797L8.52618 13.1592L11.2176 10.4814L11.4109 10.2891L11.3543 10.0225L10.5955 6.46777L10.5115 6.07227H6.06525L6.08771 6.59375ZM26.9285 22.4717L26.5291 22.3896L23.2156 21.7041L22.9442 21.6475L22.7527 21.8486L20.1356 24.5918L19.6541 25.0957L20.2859 25.3896C21.202 25.8158 22.1961 26.1624 23.2664 26.4307C24.338 26.6992 25.3839 26.8605 26.4031 26.9121L26.9285 26.9385V22.4717Z" fill="#010101" stroke="#010101"/>
</svg>
